<?xml version="1.0" ?><!DOCTYPE svg  PUBLIC '-//W3C//DTD SVG 1.1//EN'  'http://www.w3.org/Graphics/SVG/1.1/DTD/svg11.dtd'><svg enable-background="new 0 0 128 128" height="128px" version="1.1" viewBox="13 20 100 100" width="128px" xml:space="preserve" xmlns="http://www.w3.org/2000/svg" xmlns:xlink="http://www.w3.org/1999/xlink"><g id="Layer_2"/><g id="Layer_1"><polyline fill="none" points="   36.509,59.142 36.509,40.886 91.274,40.886 91.274,59.787  " stroke="#52bad5" stroke-linecap="round" stroke-linejoin="round" stroke-miterlimit="10" stroke-width="5"/><path d="   M101.011,53.665v38.944c0,3.361-2.724,6.085-6.085,6.085H34.074c-3.36,0-6.085-2.724-6.085-6.085V53.665" fill="none" stroke="#52bad5" stroke-linecap="round" stroke-linejoin="round" stroke-miterlimit="10" stroke-width="5"/><path d="   M27.989,53.736c0,0,28.056,17.475,31.143,19.401c3.087,1.926,6.778,2.319,10.533,0c3.756-2.32,31.346-19.366,31.346-19.366" fill="none" stroke="#52bad5" stroke-linecap="round" stroke-linejoin="round" stroke-miterlimit="10" stroke-width="5"/><path d="   M36.509,48.304c-4.847,2.908-8.52,5.108-8.52,5.108" fill="none" stroke="#52bad5" stroke-linecap="round" stroke-linejoin="round" stroke-miterlimit="10" stroke-width="5"/><path d="   M80.16,40.888c-4.99-3.061-9.201-5.648-10.292-6.33c-3.086-1.926-6.777-2.32-10.533,0c-1.312,0.811-5.536,3.358-10.476,6.329" fill="none" stroke="#52bad5" stroke-linecap="round" stroke-linejoin="round" stroke-miterlimit="10" stroke-width="5"/><path d="   M101.011,53.665c0,0-4.31-2.639-9.735-5.964" fill="none" stroke="#52bad5" stroke-linecap="round" stroke-linejoin="round" stroke-miterlimit="10" stroke-width="5"/></g></svg> 
